<svg xmlns="http://www.w3.org/2000/svg" viewBox="0 0 24 24" fill="currentColor"><path d="M12 2a9.9 9.9 0 0 0-8.5 15l-1.3 4.8L7.2 20.6A9.9 9.9 0 1 0 12 2zm0 1.8a8.1 8.1 0 0 1 6.9 12.4 8.1 8.1 0 0 1-10.9 2.9l-.4-.2-2.9.9.9-2.8-.3-.4A8.1 8.1 0 0 1 12 3.8zm-3 3.5c-.2 0-.5.1-.7.4-.3.3-1 1-1 2.4s1 2.8 1.2 3c.2.2 2 3.1 5 4.3 2.5 1 3 .8 3.5.8.6-.1 1.8-.8 2.1-1.5.3-.7.3-1.4.2-1.5l-.9-.5c-.3-.1-1.7-.9-2-1-.3-.1-.4-.1-.6.1l-.8 1c-.2.2-.3.2-.6.1s-1.3-.5-2.4-1.5c-.9-.8-1.5-1.8-1.7-2.1-.1-.3 0-.4.1-.6l.5-.5.3-.5v-.5l-.8-2c-.2-.5-.4-.4-.6-.4z"/></svg>
